<svg id="Layer_1" data-name="Layer 1" xmlns="http://www.w3.org/2000/svg" viewBox="0 0 315.64 336.88"><defs><style>.cls-1{fill:#fff;}</style></defs><g id="Group_1" data-name="Group 1"><path id="Path_3" data-name="Path 3" class="cls-1" d="M173.62,309.31l.15.06Z" transform="translate(-126.79 -117.18)"/><path id="Path_4" data-name="Path 4" class="cls-1" d="M440.73,182.42A81.77,81.77,0,0,0,279.58,209.7l-5.27,1.93-13.95,5.11-15.8,5.79-11.37,4.16-1.42.52a51.3,51.3,0,0,0-9.24-12.88q-.9-3.24-1.86-6.46-1.5-5-3.19-9.85l10.27-6.63a1,1,0,0,0,0-1.66l-9.59-6.49L218,179l5.61,3a1,1,0,0,0,1.32-.34l3.83-6.67,1.75-.06a1,1,0,0,0,.93-1.22l-2-10.69a3.13,3.13,0,0,0,.73-.63c1.26-1.48,1.26-3.73,1.17-5.57a13.45,13.45,0,0,0-6.14-10.91,18.19,18.19,0,0,0-11.66-2.27c-4,.48-8.13,2-10.73,5.28a14.1,14.1,0,0,0-2.08,13.43,7.88,7.88,0,0,0,3.67,4.56c1.06.56,1.36,2,1.56,3.08a16.06,16.06,0,0,1,.21,2.59c-.13.76-.3,1.52-.5,2.27l-.64-.43a1,1,0,0,0-1.33.37.67.67,0,0,0-.09.21q-1.82,5.74-3.64,11.5l-.42,1.3c-5.54,3.35-9.69,9-13.24,14.28a145.32,145.32,0,0,0-10.48,18.76,206.33,206.33,0,0,0-12,31.24l-11.12,4.08L145.13,259c-1.54.56-3.11,1.08-4.6,1.77a22.94,22.94,0,0,0,11.91,43.61c3.47-.35,6.63-1.63,9.86-2.82l.35-.13.29.4c1.42,12.48,4.54,24.82,8.1,36.85.27.91.55,1.82.83,2.73l-3.31,7.8L160.15,369,150,392.81l-8.76,20.62L137,423.48l-.06.14,0,.09-5.53,10.07c-1.5,2.72-3,5.46-4.45,8.2a1,1,0,0,0,.35,1.32l13.6,8.27,3,1.84a3,3,0,0,0,1.38.63c2.5.07,5-.17,7.53-.26l8.09-.27a.86.86,0,0,0,.39-.09.82.82,0,0,0,.58-.87c-.25-4.6-5.46-6.69-9.25-7.75l-.42-.11-.12,0a2,2,0,0,1-.56-.4,19.85,19.85,0,0,1-1.75-1.8c-1.38-1.58-2.66-3.26-3.91-4.94-.74-1-1.46-2-2.17-3l.88-1.29c.49-.69,1-1.37,1.53-2l1.06.75a1,1,0,0,0,1.17-.15c3.43-3.65,6.8-7.35,10.15-11.07q11.39-12.6,22.31-25.6l1.26-1.51c.36,2.54.87,5.07,1.27,7.59q1.42,8.82,2.84,17.65l1.16,7.21c.2,1.24.33,2.51.6,3.74l0,.17a1,1,0,0,0,.93.71l.56,0q.52,4.88,1,9.73l.14,1.25a.86.86,0,0,0-.05.27c-.14,3.21-.28,6.43-.41,9.64a1,1,0,0,0,1,1l11.76-.4,18.65-.63,4.3-.14h.12l.16,0,.06,0,.08,0a.84.84,0,0,0,.51-.6,6.46,6.46,0,0,0-3.05-6.73,16.07,16.07,0,0,0-7.3-1.91,29.84,29.84,0,0,0-3-.06,9.29,9.29,0,0,0-1.29.06l-.21-.06-1.14-.4-3.73-1.3-5.94-2.08a74.19,74.19,0,0,1,.12-7.89l.69,0,.13,0a.81.81,0,0,0,.8-.69c.44-2.07.85-4.16,1.27-6.24q1.57-7.95,3-15.93,1.94-10.68,3.59-21.41c1.16-7.56,2.2-15.15,3-22.76A187.63,187.63,0,0,0,215,343.35q0-1,0-1.92c0-.19.11-.38.16-.57a306,306,0,0,0,7-32.55l.42-2.58c.85-.3,1.71-.61,2.55-.93a1.42,1.42,0,0,0,1-1c.36-1,.66-2.11.95-3.17q.81-2.91,1.43-5.88a109.55,109.55,0,0,0,1.87-12.63c.16-1.78.28-3.57.37-5.36,2-.45,4.08-1,6.1-1.54a20.5,20.5,0,0,1,3.1-.72c1-.13,2.05-.28,3.07-.46a73.77,73.77,0,0,0,12.6-3.56c2-.76,4.07-1.6,6.07-2.48q1.32-.58,2.64-1.2a1.61,1.61,0,0,1,1-.24l1.45.05c3.28.11,7,.4,9.82-1.52a6.14,6.14,0,0,0,2.68-3.46.94.94,0,0,0,0-.5.82.82,0,0,0-.89-.72h0c-.8.06-1.6.16-2.41.22,1-.56,1.92-1.14,2.87-1.72l1.89-.7,2.6-.95q2.32-.08,4.65-.27a31.69,31.69,0,0,0,6.5-.89,8.67,8.67,0,0,0,4.71-3.22,81.81,81.81,0,0,0,143-46.71A81,81,0,0,0,440.73,182.42ZM229.94,227.89l-3.67,1.34-.09,0q-1.19-5.5-2.6-11a56.07,56.07,0,0,1,6.36,9.6Zm-2.58-54.34a16.63,16.63,0,0,0-1.05,1.83l-2.58,4.5-6.26-3.3a1,1,0,0,0-1.32.37.94.94,0,0,0-.13.46l.16,4.5-7-4.7-.06,0L207.39,176c.16-.54.31-1.09.43-1.64a23.3,23.3,0,0,0,3.64-2.77,10,10,0,0,0,2.37-2.9,3.17,3.17,0,0,0,.32-1.57,3.29,3.29,0,0,0-.05-.54,7.36,7.36,0,0,0-.66-1.95l0,0a.2.2,0,0,0,0-.08v0c-.06-.15-.13-.3-.2-.45s-.23-.49-.33-.74a3.13,3.13,0,0,1,.1-3.28,2.65,2.65,0,0,1,.4-.42,2.62,2.62,0,0,1,1.76-.41c.25,0,.49.06.73.11l.26.06.1,0a17.64,17.64,0,0,1,2.45.93c1.73.77,3.46,1.76,5.27,2.45a8.81,8.81,0,0,0,3.72.82l1.73,9.41a2.42,2.42,0,0,0-2,.57Zm-22.29-8.48a3.8,3.8,0,0,1-1.37-1.21c-2.31-3.12-2.37-8-.79-11.44,3.21-6.95,13.16-8.58,19.66-5.75a11.44,11.44,0,0,1,6.88,10.14c.07,1.3.27,3.45-.81,4.44a1.36,1.36,0,0,1-.49.29h0a2.84,2.84,0,0,1-.65.1,5.08,5.08,0,0,1-1.23-.18,16.4,16.4,0,0,1-2.63-.92l-1.37-.67a29,29,0,0,0-6-2.44c-.2-.05-.41-.08-.61-.12l-.12,0h-.1l-.29,0h-.08a3.9,3.9,0,0,0-3.37,1.2s0,0,0,0a4.26,4.26,0,0,0-1.2,2.55,4.61,4.61,0,0,0,0,1.23.77.77,0,0,1,0,.15c0,.05,0,.1,0,.15a2.88,2.88,0,0,0,.09.4,5.75,5.75,0,0,0,.23.66c.13.35.28.7.43,1s.33.65.49,1a5.68,5.68,0,0,1,.35,1.08,2.12,2.12,0,0,1-.24,1.35,8,8,0,0,1-1.06,1.27,19.7,19.7,0,0,1-1.9,1.75l0,0c-.27.22-.55.43-.83.63a12,12,0,0,0-1-4.57,4.35,4.35,0,0,0-2.09-2.14ZM156.68,301.51a21,21,0,0,1-16.49-38.46,36.12,36.12,0,0,1,4.81-2l7-2.55,8-2.92c1.09-.4,2.22-.75,3.33-1.16q-1.44,5.24-2.53,10.56c-.13.63-.26,1.27-.38,1.9a100.39,100.39,0,0,0-1.86,14.54c0,.36,0,.72,0,1.08s0,.46,0,.7a50.55,50.55,0,0,0,.26,6.51c0,.38.08.77.13,1.15l.06.43c.15,1,.34,2.07.59,3.09h0l.18.69c0,.13.08.27.11.4s.09.27.13.4.14.47.22.69l0,.09,0,.09a19.39,19.39,0,0,0,1.36,3C159.92,300.37,158.32,301,156.68,301.51ZM138.39,423.39C138.28,423.31,138.18,423.18,138.39,423.39Zm-5.58,10.15Zm14.65,9.19a14.57,14.57,0,0,0,3.52,3.53,8.1,8.1,0,0,0,1.8.6,22.56,22.56,0,0,1,2.6,1c1.68.77,3.75,1.95,4.36,3.8l-14.06.48h-.2l-.26-.13-2.61-1.58-8.55-5.2-5-3.06c1.17-2.17,2.33-4.33,3.51-6.49a10.63,10.63,0,0,0,6.08,1,17.23,17.23,0,0,0,3.64-.7l0,0h0c1.64,2.33,3.34,4.63,5.16,6.83Zm-5.8-8.66-.3.08-.43.11-.48.11-.37.08-.53.1-.34.05-.56.07-.33,0-.56,0h-.89l-.39,0-.49-.05-.46-.08-.42-.08a7,7,0,0,1-.82-.22h0a6,6,0,0,1-.79-.33l4.6-8.37.82.54,5.62,4c-1,1.3-1.95,2.63-2.85,4Zm49.69-3.49,5.14-.17,2.79-.1a74.71,74.71,0,0,0-.11,8.06v.17a7.68,7.68,0,0,1-4.35,2.27,10.18,10.18,0,0,1-2.06.18h-.3q-.53-4.9-1-9.8Zm20.14,13.23a10.75,10.75,0,0,0,3,0,20.24,20.24,0,0,1,6.6,1c2.18.77,3.79,2.32,3.78,4.61l-10.87.37-18.65.63-3.29.11c.11-2.53.21-5.06.32-7.59a11.3,11.3,0,0,0,4.81-.81,9.56,9.56,0,0,0,1.6-.8,8.6,8.6,0,0,0,1.38-1.09l.27-.28C204.15,441.26,207.8,442.64,211.49,443.81Zm.58-83.43c-.72,7.5-1.71,15-2.82,22.42q-1.62,10.9-3.58,21.77-1.5,8.37-3.14,16.72c-.46,2.34-1,4.68-1.43,7l-.78,0h0l-3.81.13-6.82.23-2-12.24q-1.66-10.35-3.32-20.69l-.68-4.21c5.87-7.09,11.6-14.31,16.93-21.81a116.16,116.16,0,0,0,9.42-14.87l.18-.35c.1-.18.18-.38.27-.56s.27-.53.39-.8A47.64,47.64,0,0,0,213,348c-.15,4.14-.48,8.28-.88,12.4Zm2.37-24.58c-.76,2.95-1.57,5.89-2.46,8.8-.23.75-.47,1.5-.7,2.26a49.81,49.81,0,0,1-2.89,7.06c-1,1.95-2.11,3.85-3.27,5.72l-.22.35c-.41.66-.84,1.32-1.26,2l-.31.47c-.66,1-1.33,2-2,3-3.07,4.49-6.32,8.85-9.66,13.15-1.81,2.34-3.66,4.67-5.52,7-.95,1.17-1.89,2.34-2.85,3.5a11.71,11.71,0,0,0-1.3,1.59c-7.37,8.93-15,17.67-22.7,26.29q-4,4.51-8.17,9c-1.19,1.29-2.49,2.54-3.63,3.89l-1-.73,0,0,0,0h0l-.76-.53-2-1.38-3.53-2.49-1.19-.84,1.12-2.64L144,412l5.51-13,6.38-15,6.39-15,5.64-13.26,4.09-9.62c.58-1.38,1.22-2.74,1.75-4.13.33-.84-.22-1.87-.47-2.7q-1.12-3.72-2.14-7.47a236.1,236.1,0,0,1-5.41-24.09c-.19-1.16-.36-2.32-.52-3.49.53.48,1.08.94,1.64,1.37.09.07.16.14.25.2l.18.13.14.1a24,24,0,0,0,3.14,1.93h0c.3.16.6.3.91.45l.46.21.32.15.31.13.32.14c.21.09.43.18.66.26h.05l.07,0c-.12-.06.2.06.31.11a5,5,0,0,0,.65.23l.24.08h0c.29.1.57.19.86.27l.38.12c.44.13.89.25,1.34.36h0l.07,0,.81.18.49.11,1,.2.42.08.92.14.65.1q.33.06.69.09l.36.05.3,0,.61.06c.53.06,1,.1,1.58.14l.39,0c.72,0,1.43.08,2.15.1h.24c.82,0,1.64,0,2.45,0h.16a90.83,90.83,0,0,0,16.92-2.1l.15,0a116.06,116.06,0,0,0,12.57-3.28C218.84,316.28,216.93,326.12,214.44,335.8Zm9.77-32.75c-.86.32-1.73.64-2.6.94l-.13,0a.86.86,0,0,0-.42.13q-5.26,1.74-10.69,3c-2.06.47-4.11.9-6.18,1.27-.73.14-1.47.26-2.21.38l-1,.16-1.07.15c-.91.12-1.82.23-2.74.33-2.29.24-4.6.39-6.91.43-.52,0-1.05,0-1.58,0l-.86,0-2-.09-.71-.05c-.58,0-1.16-.1-1.74-.16s-1.31-.15-2-.25h-.08l-1.18-.2-.94-.19-.23-.05-1.1-.26-.13,0c-.88-.23-1.76-.6-2.64-.78l-.29-.1,0,0-.07,0a4.34,4.34,0,0,1-.5-.2c-.54-.21-1.08-.42-1.62-.66a23.12,23.12,0,0,1-6.95-4.84c-.39-.42-.77-.85-1.17-1.25h0c-.27-.31-.52-.65-.76-1-2.7-4.06-3.3-9.23-3.41-14,0-.5,0-1,0-1.49s0-1.2,0-1.8l0-1,.09-1.71.09-1.18c0-.42.07-.84.11-1.27s.1-1.08.17-1.63c0,0,0-.1,0-.15.39-3.29,1-6.56,1.62-9.79v-.09c.18-.86.37-1.73.57-2.59.06-.28.12-.57.19-.85.15-.68.32-1.36.48-2,.09-.35.17-.69.26-1,.51-2.06,1.06-4.1,1.65-6.14v0c1.47-5.08,3.16-10.11,5-15.06a200.9,200.9,0,0,1,9.64-21.81,117.89,117.89,0,0,1,10.73-17.38,45.41,45.41,0,0,1,7.07-7.59,21.43,21.43,0,0,1,2.05-1.49c.48-.31.94-.5,1.16-1.05s.27-.85.4-1.27q1.68-5.31,3.36-10.59l.66.45h0l7.66,5.17.25.16L221.8,188l3.7,2.5-9.68,6.25a1,1,0,0,0-.44,1.09q3,8.46,5.33,17.13s0,.05,0,.08q2.13,7.8,3.8,15.72c.09.4.16.81.25,1.21.17.86.34,1.71.5,2.57.12.61.23,1.21.35,1.82.25,1.37.48,2.75.71,4.13l.3,1.88c.05.31.1.62.14.93l.33,2.22c0,.35.09.7.14,1.06l.27,2,.18,1.55.18,1.6c.07.67.14,1.34.2,2l-8-1.6c-.11-.67-.23-1.33-.36-2s-.26-1.27-.4-1.9c0-.21-.09-.42-.13-.63-.16-.7-.33-1.4-.5-2.09,0-.14-.07-.28-.1-.42l-.42-1.61c-.07-.29-.15-.58-.22-.87l0-.06a.14.14,0,0,0,0-.07c-.08-.32-.17-.64-.26-1s-.23-.84-.35-1.26-.2-.7-.31-1.06-.23-.79-.35-1.18-.29-.93-.44-1.39c-.09-.28-.17-.56-.26-.84-.19-.57-.39-1.13-.58-1.69l-.18-.52c-.22-.61-.45-1.23-.68-1.83,0-.13-.09-.25-.14-.37-.23-.6-.47-1.19-.71-1.79-.06-.13-.11-.27-.17-.4-.22-.52-.45-1-.68-1.56l-.27-.62L212,225.9c-.13-.27-.26-.55-.4-.83l-.09-.18,0-.06-.12-.25L211,224l-.1-.19-.4-.76-.08-.15-.43-.77-.11-.19-.41-.71-.18-.28-.36-.59c-.09-.14-.17-.28-.26-.41l-.29-.45-.37-.54-.21-.3q-.23-.33-.48-.66l-.11-.16-.59-.75,0-.05a23.78,23.78,0,0,0-3.67-3.7h0l-.75-.57-.16-.11c-.2-.15-.41-.29-.62-.42l-.17-.11-.22-.14-.22-.14-.17-.09-.25-.14-.52-.27-.19-.09-.58-.26-.18-.08-.6-.22-.23-.08-.53-.17-.35-.1a3.06,3.06,0,0,0-.41-.1,4.36,4.36,0,0,0-.52-.11L196,210l-.71-.1h0a9.67,9.67,0,0,0-6.3,1.3l-.06,0-.36.23c-.08.06-.14.12-.22.17l-.08.06-.14.11-.28.24c-.13.1-.25.21-.37.32l-.13.13-.45.46,0,0a18.67,18.67,0,0,0-4.07,8.68v.05l-.12.6c0,.18-.07.37-.1.55-.08.41-.16.83-.22,1.25l-.09.59c-.06.48-.13,1-.18,1.45,0,.18,0,.36,0,.53q-.08.74-.12,1.47l0,.63c0,.44,0,.88,0,1.32v1.94l0,1c0,.31,0,.61,0,.92s0,.77.07,1.15l.06.83c0,.38.07.76.11,1.13,0,.14,0,.29,0,.43l.06.47.06.58c0,.17.05.34.07.5.06.47.13.94.2,1.4l.12.75c.08.52.18,1.05.27,1.57,0,.22.08.44.13.66.1.52.2,1,.32,1.56,0,.24.11.49.16.73.11.48.23,1,.35,1.43.07.29.14.58.22.87s.23.84.35,1.26.19.67.3,1,.23.74.35,1.11l.36,1.1.36,1,.41,1.11c.06.14.1.29.16.43l.3.72.21.55.13.3c.18.42.36.84.55,1.26l.3.67.63,1.32.33.67c.2.4.42.79.63,1.18s.29.55.45.82.37.64.56,1l.6,1c.16.25.32.5.49.75s.5.75.75,1.12l.45.61c.28.39.56.77.86,1.15.16.21.33.41.5.61s.56.68.85,1l.24.28.34.35c.2.22.39.44.59.65a22.25,22.25,0,0,0,6.64,4.69l.65.28q.28.14.57.24a26,26,0,0,0,4.5,1.39c1.08.22,2.17.37,3.27.5h0c.63.06,1.26.12,1.9.16h.3c.56,0,1.12.05,1.68.06h.55c.46,0,.92,0,1.39,0l1,0,.9,0c.55,0,1.11-.07,1.66-.12l.19,0c2-.19,4-.48,5.94-.82l.36-.07.1,0,.31-.06.56-.11A104.25,104.25,0,0,1,224.21,303.05Zm52.37-40.58a4.61,4.61,0,0,1-.85.8c-2.6,1.92-6.24,1.47-9.27,1.37a6.2,6.2,0,0,0-2.35.06c-.93.34-1.82.86-2.73,1.26q-2.88,1.29-5.83,2.42a76.25,76.25,0,0,1-12,3.55c-1.13.23-2.26.42-3.4.57-.56.07-1.12.1-1.68.19a11.2,11.2,0,0,0-1.67.46q-3.36,1-6.77,1.74a.83.83,0,0,0-.56,0,11.83,11.83,0,0,1-1.32.4c-2,.4-4,.72-6.08.94l-1.18.12-.57,0c-.51,0-1,.08-1.53.1l-.45,0-1.57,0h-.64l-1.36,0-1.61-.09-.45,0h0a25,25,0,0,1-12.29-4.14l-.24-.17-.36-.27-.59-.48a34.42,34.42,0,0,1-7.37-9.25c-.07-.13-.14-.26-.22-.39-.24-.43-.47-.85-.69-1.28l-.26-.5-.35-.72c-.2-.38-.38-.78-.57-1.17s-.3-.64-.44-1-.3-.68-.44-1-.26-.63-.39-.94-.29-.73-.43-1.1l-.33-.89-.42-1.19c-.09-.27-.18-.54-.26-.82s-.28-.85-.4-1.28c-.08-.25-.15-.5-.23-.76-.13-.44-.25-.89-.37-1.34-.07-.25-.13-.5-.19-.75-.12-.45-.23-.89-.33-1.34-.07-.27-.13-.55-.19-.82s-.17-.82-.26-1.23-.13-.68-.2-1-.12-.65-.18-1-.11-.66-.16-1l-.15-1c0-.33-.09-.66-.13-1s-.09-.69-.13-1-.07-.62-.1-.93-.07-.75-.1-1.13l-.06-.85-.06-1.22,0-.77c0-.43,0-.86,0-1.29v-.73c0-.43,0-.85,0-1.28l0-.76c0-.4,0-.8.08-1.19s.06-.84.1-1.26c.1-.91.22-1.84.38-2.78,0-.09,0-.17.05-.26l.06-.3c0-.19.07-.37.11-.55v0a18.39,18.39,0,0,1,2.95-7l.19-.25.13-.17a8.58,8.58,0,0,1,2.57-2.15l0,0,.43-.21.12-.05.31-.11.35-.11.44-.12.33-.07.42-.06.37,0,.39,0h.77l.42,0,.35,0,.42.06.36.07.4.09.38.1.36.1.3.1.56.2.4.16.56.25.29.15.63.35.18.1c.24.15.48.3.71.46l.08.05a26.17,26.17,0,0,1,7.09,8.25l0,0c.14.23.27.46.4.7a1.18,1.18,0,0,1,.11.19c.21.37.41.75.62,1.13s.37.68.54,1,.28.56.42.84l.57,1.18c.12.25.23.51.35.77.18.42.37.83.56,1.26l.31.76c.18.43.36.86.52,1.28s.22.56.32.84.31.82.46,1.23.23.65.35,1,.26.73.38,1.1.25.77.38,1.16.21.62.3.94.26.82.38,1.23l.27.88c.15.52.29,1,.44,1.56s.31,1.07.45,1.61.28,1.08.42,1.62.27,1,.39,1.55c.17.69.32,1.38.47,2.07.09.37.18.74.26,1.12.15.71.28,1.42.42,2.14l.21,1.09.12.67a.91.91,0,0,0,.67.67l9.87,2,.94.19,4.43.88q6.87,1.38,13.75,2.72c2.85.56,5.7,1.14,8.56,1.6l.2,0c.29.05.58.11.87.14h.17l.28,0a2.2,2.2,0,0,0,1.08-.44c1-.57,2-1.33,2.95-1.92a16.51,16.51,0,0,1,2.29-1.18h0a6.69,6.69,0,0,1,2.49-.52l.16,0,.25,0,.16,0,.07,0h0c.24-.07.47-.15.7-.24l1.46-.51c-.08.2-.15.4-.2.49l-.17.35-.78,1.6a1,1,0,0,0,.34,1.31,16,16,0,0,0,1.57.89,15.13,15.13,0,0,0,1.56.78l.16.07a.32.32,0,0,0,.09,0,6.15,6.15,0,0,0,1.4.37,13,13,0,0,0,2.86-.07Zm9.67-8.4-8.21,3-.1,0-.28.1-1.62.6-4.13,1.51-.55.2-.64-.35c.2-.39.38-.78.57-1.16a4.66,4.66,0,0,0,.67-1.67,1.56,1.56,0,0,0-.2-.92,1.61,1.61,0,0,0-1.6-.87h0l-.22,0-.18,0c-.72.2-1.43.5-2.14.75l-.46.16a1.7,1.7,0,0,1-.24.09,0,0,0,0,0,0,0s0,0-.12,0a5.35,5.35,0,0,0-1.44.16l-.55.14h0a17.78,17.78,0,0,0-4.63,2.32l-.32.21-.2.13c-.11.07-1.31.81-1.71,1.08h-.11l-.13,0-1.26-.22-.52-.09-5.36-1L244.07,257q-5.92-1.15-11.84-2.35l-2.19-.44c-.07-.76-.14-1.52-.22-2.28l0-.27c-.74-6.88-1.83-13.73-3.22-20.51l6.34-2.32,10.36-3.8,15.58-5.7L273.42,214l4.95-1.81c.47-.17,1-.31,1.49-.49h0c.09.58.19,1.15.29,1.73.05.25.08.51.13.76a82.11,82.11,0,0,0,6.26,19.39l.17.35c.24.5.48,1,.73,1.5l.3.61.63,1.22c.14.25.27.5.4.75l.59,1.06.46.82.59,1,.49.82.63,1,.36.58.12.18.13.2.21.3c.54.83,1.11,1.66,1.69,2.47l.12.17c.86,1.22,1.76,2.4,2.7,3.56Zm10.53-1.43a8,8,0,0,1-3.57,1.74,23.64,23.64,0,0,1-3.64.52l4.75-1.74,3-1.09a5.56,5.56,0,0,1-.52.56Zm141.55-35.16A79.9,79.9,0,0,1,372.6,278a78.79,78.79,0,0,1-25.73-.3,80.13,80.13,0,0,1-44.28-23.81c-.94-1-1.86-2-2.75-3.07a.81.81,0,0,0-.24-.28,80.15,80.15,0,0,1-15.93-30.21h0c-.1-.35-.18-.7-.27-1l-.3-1.14-.24-1c-.11-.45-.21-.9-.3-1.36l-.21-1c-.12-.59-.23-1.18-.34-1.77-.07-.38-.13-.76-.19-1.14s-.09-.54-.13-.81A79.17,79.17,0,0,1,284,176.69a80,80,0,0,1,25.92-39.38,79.84,79.84,0,0,1,120.89,23.47,79.55,79.55,0,0,1,7.55,56.7Z" transform="translate(-126.79 -117.18)"/><path id="Path_5" data-name="Path 5" class="cls-1" d="M382.72,136.35A66.41,66.41,0,1,0,414.4,160,66.41,66.41,0,0,0,382.72,136.35Zm35.87,90.92a64.46,64.46,0,1,1,5.82-38A64.44,64.44,0,0,1,418.59,227.27Z" transform="translate(-126.79 -117.18)"/></g></svg>